<svg width="800" height="800" viewBox="0 0 800 800" fill="none" xmlns="http://www.w3.org/2000/svg">
<path d="M290.333 257L366.666 180.333V500C366.666 508.841 370.178 517.319 376.43 523.57C382.681 529.822 391.159 533.333 400 533.333C408.84 533.333 417.319 529.822 423.57 523.57C429.821 517.319 433.333 508.841 433.333 500V180.333L509.666 257C512.765 260.124 516.452 262.604 520.514 264.296C524.576 265.989 528.933 266.86 533.333 266.86C537.734 266.86 542.09 265.989 546.152 264.296C550.214 262.604 553.901 260.124 557 257C560.124 253.901 562.604 250.215 564.296 246.153C565.989 242.091 566.86 237.734 566.86 233.333C566.86 228.933 565.989 224.576 564.296 220.514C562.604 216.452 560.124 212.766 557 209.667L423.666 76.3335C420.496 73.2988 416.758 70.9199 412.666 69.3335C404.551 65.9995 395.449 65.9995 387.333 69.3335C383.241 70.9199 379.503 73.2988 376.333 76.3335L243 209.667C239.892 212.775 237.427 216.464 235.745 220.525C234.063 224.586 233.197 228.938 233.197 233.333C233.197 237.729 234.063 242.081 235.745 246.142C237.427 250.202 239.892 253.892 243 257C246.108 260.108 249.797 262.573 253.858 264.255C257.919 265.937 262.271 266.803 266.666 266.803C271.062 266.803 275.414 265.937 279.475 264.255C283.536 262.573 287.225 260.108 290.333 257ZM700 466.667C691.159 466.667 682.681 470.179 676.43 476.43C670.178 482.681 666.666 491.16 666.666 500V633.333C666.666 642.174 663.155 650.652 656.903 656.904C650.652 663.155 642.174 666.667 633.333 666.667H166.667C157.826 666.667 149.347 663.155 143.096 656.904C136.845 650.652 133.333 642.174 133.333 633.333V500C133.333 491.16 129.821 482.681 123.57 476.43C117.319 470.179 108.84 466.667 99.9998 466.667C91.1593 466.667 82.6808 470.179 76.4296 476.43C70.1784 482.681 66.6665 491.16 66.6665 500V633.333C66.6665 659.855 77.2022 685.291 95.9558 704.044C114.709 722.798 140.145 733.333 166.667 733.333H633.333C659.855 733.333 685.29 722.798 704.044 704.044C722.797 685.291 733.333 659.855 733.333 633.333V500C733.333 491.16 729.821 482.681 723.57 476.43C717.319 470.179 708.84 466.667 700 466.667Z" fill="#161719"/>
</svg>
